<svg width="224" height="206" viewBox="0 0 224 206" fill="none" xmlns="http://www.w3.org/2000/svg">
<circle cx="222.5" cy="193.5" r="1.5" fill="#689AF8" fill-opacity="0.7"/>
<circle cx="118.5" cy="193.5" r="1.5" fill="#689AF8" fill-opacity="0.7"/>
<circle cx="170.5" cy="193.5" r="1.5" fill="#689AF8" fill-opacity="0.7"/>
<circle cx="66.5" cy="193.5" r="1.5" fill="#689AF8" fill-opacity="0.7"/>
<circle cx="196.5" cy="193.5" r="1.5" fill="#689AF8" fill-opacity="0.7"/>
<circle cx="92.5" cy="193.5" r="1.5" fill="#689AF8" fill-opacity="0.7"/>
<circle cx="144.5" cy="193.5" r="1.5" fill="#689AF8" fill-opacity="0.7"/>
<circle cx="40.5" cy="193.5" r="1.5" fill="#689AF8" fill-opacity="0.7"/>
<circle cx="14.5" cy="193.5" r="1.5" fill="#689AF8" fill-opacity="0.7"/>
<circle cx="222.5" cy="1.5" r="1.5" fill="#689AF8" fill-opacity="0.7"/>
<circle cx="222.5" cy="97.5" r="1.5" fill="#689AF8" fill-opacity="0.7"/>
<circle cx="222.5" cy="49.5" r="1.5" fill="#689AF8" fill-opacity="0.7"/>
<circle cx="222.5" cy="145.5" r="1.5" fill="#689AF8" fill-opacity="0.7"/>
<circle cx="222.5" cy="25.5" r="1.5" fill="#689AF8" fill-opacity="0.7"/>
<circle cx="222.5" cy="121.5" r="1.5" fill="#689AF8" fill-opacity="0.7"/>
<circle cx="222.5" cy="73.5" r="1.5" fill="#689AF8" fill-opacity="0.7"/>
<circle cx="222.5" cy="169.5" r="1.5" fill="#689AF8" fill-opacity="0.7"/>
<circle cx="209.5" cy="193.5" r="1.5" fill="#689AF8" fill-opacity="0.7"/>
<circle cx="105.5" cy="193.5" r="1.5" fill="#689AF8" fill-opacity="0.7"/>
<circle cx="157.5" cy="193.5" r="1.5" fill="#689AF8" fill-opacity="0.7"/>
<circle cx="53.5" cy="193.5" r="1.5" fill="#689AF8" fill-opacity="0.7"/>
<circle cx="183.5" cy="193.5" r="1.5" fill="#689AF8" fill-opacity="0.7"/>
<circle cx="79.5" cy="193.5" r="1.5" fill="#689AF8" fill-opacity="0.7"/>
<circle cx="131.5" cy="193.5" r="1.5" fill="#689AF8" fill-opacity="0.7"/>
<circle cx="27.5" cy="193.5" r="1.5" fill="#689AF8" fill-opacity="0.7"/>
<circle cx="1.5" cy="193.5" r="1.5" fill="#689AF8" fill-opacity="0.7"/>
<circle cx="209.5" cy="1.5" r="1.5" fill="#689AF8" fill-opacity="0.7"/>
<circle cx="209.5" cy="97.5" r="1.5" fill="#689AF8" fill-opacity="0.7"/>
<circle cx="209.5" cy="49.5" r="1.5" fill="#689AF8" fill-opacity="0.7"/>
<circle cx="209.5" cy="145.5" r="1.5" fill="#689AF8" fill-opacity="0.7"/>
<circle cx="209.5" cy="25.5" r="1.5" fill="#689AF8" fill-opacity="0.7"/>
<circle cx="209.5" cy="121.5" r="1.5" fill="#689AF8" fill-opacity="0.7"/>
<circle cx="209.5" cy="73.5" r="1.5" fill="#689AF8" fill-opacity="0.7"/>
<circle cx="209.5" cy="169.5" r="1.5" fill="#689AF8" fill-opacity="0.7"/>
<circle cx="222.5" cy="204.5" r="1.5" fill="#689AF8" fill-opacity="0.7"/>
<circle cx="118.5" cy="204.5" r="1.5" fill="#689AF8" fill-opacity="0.7"/>
<circle cx="170.5" cy="204.5" r="1.5" fill="#689AF8" fill-opacity="0.7"/>
<circle cx="66.5" cy="204.5" r="1.5" fill="#689AF8" fill-opacity="0.7"/>
<circle cx="196.5" cy="204.5" r="1.5" fill="#689AF8" fill-opacity="0.7"/>
<circle cx="92.5" cy="204.5" r="1.5" fill="#689AF8" fill-opacity="0.7"/>
<circle cx="144.5" cy="204.5" r="1.5" fill="#689AF8" fill-opacity="0.7"/>
<circle cx="40.5" cy="204.5" r="1.5" fill="#689AF8" fill-opacity="0.7"/>
<circle cx="14.5" cy="204.5" r="1.5" fill="#689AF8" fill-opacity="0.7"/>
<circle cx="222.5" cy="12.5" r="1.5" fill="#689AF8" fill-opacity="0.7"/>
<circle cx="222.5" cy="108.5" r="1.5" fill="#689AF8" fill-opacity="0.7"/>
<circle cx="222.5" cy="60.5" r="1.5" fill="#689AF8" fill-opacity="0.7"/>
<circle cx="222.5" cy="156.5" r="1.5" fill="#689AF8" fill-opacity="0.7"/>
<circle cx="222.5" cy="36.5" r="1.5" fill="#689AF8" fill-opacity="0.7"/>
<circle cx="222.5" cy="132.5" r="1.5" fill="#689AF8" fill-opacity="0.7"/>
<circle cx="222.5" cy="84.5" r="1.5" fill="#689AF8" fill-opacity="0.7"/>
<circle cx="222.5" cy="180.5" r="1.5" fill="#689AF8" fill-opacity="0.7"/>
<circle cx="209.5" cy="204.5" r="1.5" fill="#689AF8" fill-opacity="0.7"/>
<circle cx="105.5" cy="204.5" r="1.5" fill="#689AF8" fill-opacity="0.7"/>
<circle cx="157.5" cy="204.5" r="1.5" fill="#689AF8" fill-opacity="0.7"/>
<circle cx="53.5" cy="204.5" r="1.5" fill="#689AF8" fill-opacity="0.7"/>
<circle cx="183.5" cy="204.5" r="1.5" fill="#689AF8" fill-opacity="0.7"/>
<circle cx="79.5" cy="204.5" r="1.5" fill="#689AF8" fill-opacity="0.7"/>
<circle cx="131.5" cy="204.5" r="1.5" fill="#689AF8" fill-opacity="0.7"/>
<circle cx="27.5" cy="204.5" r="1.5" fill="#689AF8" fill-opacity="0.7"/>
<circle cx="1.5" cy="204.5" r="1.5" fill="#689AF8" fill-opacity="0.7"/>
<circle cx="209.5" cy="12.5" r="1.5" fill="#689AF8" fill-opacity="0.7"/>
<circle cx="209.5" cy="108.5" r="1.5" fill="#689AF8" fill-opacity="0.7"/>
<circle cx="209.5" cy="60.5" r="1.5" fill="#689AF8" fill-opacity="0.7"/>
<circle cx="209.5" cy="156.5" r="1.5" fill="#689AF8" fill-opacity="0.7"/>
<circle cx="209.5" cy="36.5" r="1.5" fill="#689AF8" fill-opacity="0.7"/>
<circle cx="209.5" cy="132.5" r="1.5" fill="#689AF8" fill-opacity="0.7"/>
<circle cx="209.5" cy="84.5" r="1.5" fill="#689AF8" fill-opacity="0.7"/>
<circle cx="209.5" cy="180.5" r="1.5" fill="#689AF8" fill-opacity="0.7"/>
</svg>
