<svg width="128" height="128" viewBox="0 0 128 128" fill="none" xmlns="http://www.w3.org/2000/svg">
<path d="M64.026 93.694C96.386 93.694 122.62 80.399 122.62 64C122.62 47.601 96.387 34.306 64.026 34.306C31.665 34.306 5.43298 47.601 5.43298 64C5.43298 80.399 31.666 93.694 64.026 93.694V93.694Z" fill="#6181B6"/>
<path d="M75.896 73.598L78.8019 58.64C79.4579 55.263 78.9119 52.744 77.1819 51.154C75.5049 49.614 72.6589 48.866 68.4789 48.866H63.4459L64.8859 41.454C64.9409 41.175 64.8659 40.886 64.6859 40.666C64.5049 40.447 64.2359 40.319 63.9509 40.319H57.0039C56.5479 40.319 56.1559 40.642 56.0679 41.09L52.9819 56.971C52.7019 55.184 52.0089 53.648 50.9029 52.38C48.8649 50.048 45.6419 48.865 41.3229 48.865H27.8559C27.3999 48.865 27.0079 49.187 26.9209 49.636L20.6739 81.78C20.6189 82.058 20.6939 82.348 20.8739 82.567C21.0549 82.787 21.3249 82.914 21.6089 82.914H28.6109C29.0669 82.914 29.4599 82.591 29.5469 82.143L31.0579 74.368H36.2709C39.0059 74.368 41.3029 74.072 43.0979 73.487C44.9319 72.891 46.6199 71.88 48.1089 70.486C49.3109 69.382 50.3049 68.145 51.0689 66.81L49.8209 73.234C49.7669 73.512 49.8409 73.801 50.0209 74.021C50.2009 74.241 50.4719 74.368 50.7559 74.368H57.7029C58.1589 74.368 58.5509 74.045 58.6389 73.597L62.0679 55.952H66.8349C68.8659 55.952 69.4609 56.356 69.6219 56.53C69.7689 56.689 70.0739 57.248 69.7319 59.01L66.9679 73.233C66.9129 73.511 66.9869 73.8 67.1679 74.02C67.3489 74.24 67.6179 74.367 67.9029 74.367H74.9609C75.4159 74.368 75.809 74.045 75.896 73.598V73.598ZM43.6879 61.238C43.2509 63.48 42.4289 65.08 41.2439 65.993C40.0389 66.92 38.1119 67.39 35.5169 67.39H32.4129L34.6569 55.842H38.6689C41.6169 55.842 42.8049 56.472 43.2809 57C43.9429 57.734 44.0829 59.199 43.6879 61.238V61.238ZM105.604 52.38C103.566 50.048 100.343 48.865 96.0229 48.865H82.5589C82.1029 48.865 81.7099 49.187 81.6229 49.636L75.3749 81.78C75.3209 82.058 75.3949 82.348 75.5759 82.567C75.7569 82.787 76.0259 82.914 76.3099 82.914H83.313C83.768 82.914 84.1609 82.591 84.2479 82.143L85.7599 74.368H90.9719C93.7069 74.368 96.005 74.072 97.799 73.487C99.634 72.891 101.321 71.88 102.81 70.486C104.051 69.345 105.074 68.065 105.847 66.68C106.619 65.297 107.175 63.753 107.497 62.092C108.294 57.998 107.657 54.729 105.604 52.38V52.38ZM98.3419 61.238C97.9049 63.48 97.0829 65.08 95.8979 65.993C94.6939 66.92 92.7669 67.39 90.1709 67.39H87.0669L89.3119 55.842H93.3239C96.2719 55.842 97.4599 56.472 97.9359 57C98.5979 57.734 98.7369 59.199 98.3419 61.238Z" fill="white"/>
<path d="M38.67 54.89C41.33 54.89 43.104 55.381 43.99 56.364C44.875 57.346 45.087 59.032 44.623 61.421C44.139 63.909 43.207 65.685 41.825 66.749C40.443 67.812 38.34 68.344 35.517 68.344H31.257L33.871 54.891H38.67V54.89V54.89ZM21.609 81.962H28.611L30.272 73.416H36.27C38.916 73.416 41.093 73.139 42.802 72.582C44.511 72.026 46.065 71.094 47.463 69.785C48.636 68.707 49.585 67.517 50.313 66.216C51.04 64.916 51.555 63.482 51.86 61.911C52.601 58.1 52.042 55.133 50.184 53.007C48.326 50.881 45.372 49.818 41.322 49.818H27.856L21.609 81.962V81.962ZM57.003 41.271H63.95L62.289 49.817H68.478C72.372 49.817 75.058 50.497 76.537 51.854C78.016 53.213 78.458 55.415 77.867 58.457L74.961 73.416H67.903L70.666 59.193C70.98 57.575 70.865 56.471 70.319 55.882C69.773 55.295 68.611 55 66.834 55H61.281L57.703 73.416H50.756L57.003 41.271V41.271ZM93.324 54.89C95.984 54.89 97.758 55.381 98.643 56.364C99.53 57.346 99.74 59.032 99.277 61.421C98.793 63.909 97.86 65.685 96.478 66.749C95.096 67.812 92.994 68.344 90.17 68.344H85.911L88.525 54.891H93.324V54.89V54.89ZM76.264 81.962H83.266L84.927 73.416H90.924C93.57 73.416 95.747 73.139 97.456 72.582C99.166 72.026 100.72 71.094 102.117 69.785C103.291 68.707 104.24 67.517 104.968 66.216C105.694 64.916 106.21 63.482 106.515 61.911C107.255 58.1 106.697 55.133 104.839 53.007C102.981 50.881 100.027 49.818 95.976 49.818H82.511L76.264 81.962V81.962Z" fill="#000004"/>
</svg>
